{
  "accessors": [
    {
      "name": "Momo-Mesh_0_positions",
      "componentType": 5126,
      "count": 2200,
      "min": [
        -0.6167600154876709,
        -0.5132560133934021,
        -0.77537602186203
      ],
      "max": [
        0.5987359881401062,
        1.0282210111618042,
        1.0649240016937256
      ],
      "type": "VEC3",
      "bufferView": 0,
      "byteOffset": 0
    },
    {
      "name": "Momo-Mesh_0_normals",
      "componentType": 5126,
      "count": 2200,
      "min": [
        -0.9998526573181152,
        -1,
        -0.9999118447303772
      ],
      "max": [
        0.999854326248169,
        0.9999895095825195,
        0.9978369474411011
      ],
      "type": "VEC3",
      "bufferView": 1,
      "byteOffset": 0
    },
    {
      "name": "Momo-Mesh_0_texcoords",
      "componentType": 5126,
      "count": 2200,
      "min": [
        0.015049000270664692,
        0.007216999772936106
      ],
      "max": [
        0.9906910061836243,
        0.9898719787597656
      ],
      "type": "VEC2",
      "bufferView": 2,
      "byteOffset": 0
    },
    {
      "name": "Momo-Mesh_0_indices",
      "componentType": 5123,
      "count": 9855,
      "min": [
        0
      ],
      "max": [
        2199
      ],
      "type": "SCALAR",
      "bufferView": 3,
      "byteOffset": 0
    }
  ],
  "asset": {
    "generator": "obj2gltf",
    "version": "2.0"
  },
  "buffers": [
    {
      "name": "model",
      "byteLength": 90112,
      "uri": "data:application/octet-stream;base64,"
    }
  ],
  "bufferViews": [
    {
      "name": "bufferView_0",
      "buffer": 0,
      "byteLength": 26400,
      "byteOffset": 0,
      "byteStride": 12,
      "target": 34962
    },
    {
      "name": "bufferView_1",
      "buffer": 0,
      "byteLength": 26400,
      "byteOffset": 26400,
      "byteStride": 12,
      "target": 34962
    },
    {
      "name": "bufferView_2",
      "buffer": 0,
      "byteLength": 17600,
      "byteOffset": 52800,
      "byteStride": 8,
      "target": 34962
    },
    {
      "name": "bufferView_3",
      "buffer": 0,
      "byteLength": 19712,
      "byteOffset": 70400,
      "target": 34963
    }
  ],
  "materials": [
    {
      "name": "Material",
      "pbrMetallicRoughness": {
        "baseColorFactor": [
          0.5,
          0.5,
          0.5,
          1
        ],
        "metallicFactor": 0,
        "roughnessFactor": 1
      },
      "emissiveFactor": [
        0,
        0,
        0
      ],
      "alphaMode": "OPAQUE",
      "doubleSided": false
    }
  ],
  "meshes": [
    {
      "name": "Momo-Mesh",
      "primitives": [
        {
          "attributes": {
            "POSITION": 0,
            "NORMAL": 1,
            "TEXCOORD_0": 2
          },
          "indices": 3,
          "material": 0,
          "mode": 4
        }
      ]
    }
  ],
  "nodes": [
    {
      "name": "Momo",
      "mesh": 0
    }
  ],
  "scene": 0,
  "scenes": [
    {
      "nodes": [
        0
      ]
    }
  ]
}
