{
  "accessors": [
    {
      "name": "Plane-Mesh_0_positions",
      "componentType": 5126,
      "count": 614,
      "min": [
        -4.8957200050354,
        -0.5858849883079529,
        -4.840315818786621
      ],
      "max": [
        4.8957200050354,
        1.776324987411499,
        4.043694019317627
      ],
      "type": "VEC3",
      "bufferView": 0,
      "byteOffset": 0
    },
    {
      "name": "Plane-Mesh_0_normals",
      "componentType": 5126,
      "count": 614,
      "min": [
        -0.9999948740005493,
        -1,
        -1
      ],
      "max": [
        0.9999948740005493,
        1,
        0.9999966025352478
      ],
      "type": "VEC3",
      "bufferView": 1,
      "byteOffset": 0
    },
    {
      "name": "Plane-Mesh_0_indices",
      "componentType": 5123,
      "count": 2544,
      "min": [
        0
      ],
      "max": [
        613
      ],
      "type": "SCALAR",
      "bufferView": 2,
      "byteOffset": 0
    },
    {
      "name": "win_frame_Circle.000-Mesh_0_positions",
      "componentType": 5126,
      "count": 98,
      "min": [
        -0.22334599494934082,
        0.4798769950866699,
        -0.25432899594306946
      ],
      "max": [
        0.22334599494934082,
        0.7975599765777588,
        0.984453022480011
      ],
      "type": "VEC3",
      "bufferView": 0,
      "byteOffset": 7368
    },
    {
      "name": "win_frame_Circle.000-Mesh_0_normals",
      "componentType": 5126,
      "count": 98,
      "min": [
        -0.9776142239570618,
        -0.9995468258857727,
        -0.8399088382720947
      ],
      "max": [
        0.9995459914207458,
        0.9549029469490051,
        0.899489164352417
      ],
      "type": "VEC3",
      "bufferView": 1,
      "byteOffset": 7368
    },
    {
      "name": "win_frame_Circle.000-Mesh_0_indices",
      "componentType": 5123,
      "count": 264,
      "min": [
        0
      ],
      "max": [
        97
      ],
      "type": "SCALAR",
      "bufferView": 2,
      "byteOffset": 5088
    },
    {
      "name": "inlet2_Plane.006-Mesh_0_positions",
      "componentType": 5126,
      "count": 128,
      "min": [
        -1.050253987312317,
        -0.7960969805717468,
        0.3680169880390167
      ],
      "max": [
        1.0430150032043457,
        -0.4558640122413635,
        1.591940999031067
      ],
      "type": "VEC3",
      "bufferView": 0,
      "byteOffset": 8544
    },
    {
      "name": "inlet2_Plane.006-Mesh_0_normals",
      "componentType": 5126,
      "count": 128,
      "min": [
        -0.9981847405433655,
        -0.9971544146537781,
        -0.9954096078872681
      ],
      "max": [
        0.9985077977180481,
        0.9971228837966919,
        0.9991323351860046
      ],
      "type": "VEC3",
      "bufferView": 1,
      "byteOffset": 8544
    },
    {
      "name": "inlet2_Plane.006-Mesh_0_indices",
      "componentType": 5123,
      "count": 264,
      "min": [
        0
      ],
      "max": [
        127
      ],
      "type": "SCALAR",
      "bufferView": 2,
      "byteOffset": 5616
    },
    {
      "name": "window_Circle.001-Mesh_0_positions",
      "componentType": 5126,
      "count": 56,
      "min": [
        -0.21449600160121918,
        0.47442999482154846,
        -0.25422999262809753
      ],
      "max": [
        0.21449600160121918,
        0.828046977519989,
        0.978725016117096
      ],
      "type": "VEC3",
      "bufferView": 0,
      "byteOffset": 10080
    },
    {
      "name": "window_Circle.001-Mesh_0_normals",
      "componentType": 5126,
      "count": 56,
      "min": [
        -0.8967088460922241,
        -0.8712209463119507,
        -0.787997841835022
      ],
      "max": [
        0.8967088460922241,
        0.9999998807907104,
        0.5669058561325073
      ],
      "type": "VEC3",
      "bufferView": 1,
      "byteOffset": 10080
    },
    {
      "name": "window_Circle.001-Mesh_0_indices",
      "componentType": 5123,
      "count": 162,
      "min": [
        0
      ],
      "max": [
        55
      ],
      "type": "SCALAR",
      "bufferView": 2,
      "byteOffset": 6144
    },
    {
      "name": "head_Plane.001-Mesh_0_positions",
      "componentType": 5126,
      "count": 257,
      "min": [
        -0.2602809965610504,
        -0.1580040007829666,
        4.031692981719971
      ],
      "max": [
        0.2602809965610504,
        0.4079299867153168,
        4.784317970275879
      ],
      "type": "VEC3",
      "bufferView": 0,
      "byteOffset": 10752
    },
    {
      "name": "head_Plane.001-Mesh_0_normals",
      "componentType": 5126,
      "count": 257,
      "min": [
        -0.9986156225204468,
        -0.9922947883605957,
        0.05260082334280014
      ],
      "max": [
        0.9986156225204468,
        0.9922947883605957,
        1
      ],
      "type": "VEC3",
      "bufferView": 1,
      "byteOffset": 10752
    },
    {
      "name": "head_Plane.001-Mesh_0_indices",
      "componentType": 5123,
      "count": 1440,
      "min": [
        0
      ],
      "max": [
        256
      ],
      "type": "SCALAR",
      "bufferView": 2,
      "byteOffset": 6468
    },
    {
      "name": "Propeller_Plane.002-Mesh_0_positions",
      "componentType": 5126,
      "count": 48,
      "min": [
        -1.1594480276107788,
        -0.5539069771766663,
        4.028265953063965
      ],
      "max": [
        1.147333025932312,
        1.4550590515136719,
        4.2337517738342285
      ],
      "type": "VEC3",
      "bufferView": 0,
      "byteOffset": 13836
    },
    {
      "name": "Propeller_Plane.002-Mesh_0_normals",
      "componentType": 5126,
      "count": 48,
      "min": [
        -0.9833551645278931,
        -0.9316591024398804,
        -0.9940293431282043
      ],
      "max": [
        0.9845412373542786,
        0.971969485282898,
        0.991047739982605
      ],
      "type": "VEC3",
      "bufferView": 1,
      "byteOffset": 13836
    },
    {
      "name": "Propeller_Plane.002-Mesh_0_indices",
      "componentType": 5123,
      "count": 252,
      "min": [
        0
      ],
      "max": [
        47
      ],
      "type": "SCALAR",
      "bufferView": 2,
      "byteOffset": 9348
    },
    {
      "name": "inlet1_Plane.005-Mesh_0_positions",
      "componentType": 5126,
      "count": 112,
      "min": [
        -0.20424899458885193,
        -0.7740150094032288,
        1.6587369441986084
      ],
      "max": [
        0.18392899632453918,
        -0.5672150254249573,
        2.8054890632629395
      ],
      "type": "VEC3",
      "bufferView": 0,
      "byteOffset": 14412
    },
    {
      "name": "inlet1_Plane.005-Mesh_0_normals",
      "componentType": 5126,
      "count": 112,
      "min": [
        -0.9966599941253662,
        -0.9998814463615417,
        -1
      ],
      "max": [
        0.9966599941253662,
        0.9998588562011719,
        0.9987764358520508
      ],
      "type": "VEC3",
      "bufferView": 1,
      "byteOffset": 14412
    },
    {
      "name": "inlet1_Plane.005-Mesh_0_indices",
      "componentType": 5123,
      "count": 390,
      "min": [
        0
      ],
      "max": [
        111
      ],
      "type": "SCALAR",
      "bufferView": 2,
      "byteOffset": 9852
    },
    {
      "name": "smoke1_Cylinder-Mesh_0_positions",
      "componentType": 5126,
      "count": 780,
      "min": [
        -0.4748390018939972,
        0.09651400148868561,
        2.702544927597046
      ],
      "max": [
        -0.27274999022483826,
        0.2025340050458908,
        3.6877589225769043
      ],
      "type": "VEC3",
      "bufferView": 0,
      "byteOffset": 15756
    },
    {
      "name": "smoke1_Cylinder-Mesh_0_normals",
      "componentType": 5126,
      "count": 780,
      "min": [
        -0.9464134573936462,
        -0.9934186935424805,
        -0.9630020260810852
      ],
      "max": [
        0.9759218096733093,
        0.9892424941062927,
        0.98813796043396
      ],
      "type": "VEC3",
      "bufferView": 1,
      "byteOffset": 15756
    },
    {
      "name": "smoke1_Cylinder-Mesh_0_indices",
      "componentType": 5123,
      "count": 4032,
      "min": [
        0
      ],
      "max": [
        779
      ],
      "type": "SCALAR",
      "bufferView": 2,
      "byteOffset": 10632
    },
    {
      "name": "smoke2_Cylinder.002-Mesh_0_positions",
      "componentType": 5126,
      "count": 782,
      "min": [
        0.2744689881801605,
        0.08683499693870544,
        2.688220977783203
      ],
      "max": [
        0.47147101163864136,
        0.20441900193691254,
        3.6689019203186035
      ],
      "type": "VEC3",
      "bufferView": 0,
      "byteOffset": 25116
    },
    {
      "name": "smoke2_Cylinder.002-Mesh_0_normals",
      "componentType": 5126,
      "count": 782,
      "min": [
        -0.9806858897209167,
        -0.9985389709472656,
        -0.9464237093925476
      ],
      "max": [
        0.9536533951759338,
        0.9899414777755737,
        0.9592966437339783
      ],
      "type": "VEC3",
      "bufferView": 1,
      "byteOffset": 25116
    },
    {
      "name": "smoke2_Cylinder.002-Mesh_0_indices",
      "componentType": 5123,
      "count": 4032,
      "min": [
        0
      ],
      "max": [
        781
      ],
      "type": "SCALAR",
      "bufferView": 2,
      "byteOffset": 18696
    }
  ],
  "asset": {
    "generator": "obj2gltf",
    "version": "2.0"
  },
  "buffers": [
    {
      "name": "plane",
      "byteLength": 95760,
      "uri": "data:application/octet-stream;base64,"
    }
  ],
  "bufferViews": [
    {
      "name": "bufferView_0",
      "buffer": 0,
      "byteLength": 34500,
      "byteOffset": 0,
      "byteStride": 12,
      "target": 34962
    },
    {
      "name": "bufferView_1",
      "buffer": 0,
      "byteLength": 34500,
      "byteOffset": 34500,
      "byteStride": 12,
      "target": 34962
    },
    {
      "name": "bufferView_2",
      "buffer": 0,
      "byteLength": 26760,
      "byteOffset": 69000,
      "target": 34963
    }
  ],
  "materials": [
    {
      "name": "body",
      "pbrMetallicRoughness": {
        "baseColorFactor": [
          0.5,
          0.5,
          0.5,
          1
        ],
        "metallicFactor": 0,
        "roughnessFactor": 1
      },
      "emissiveFactor": [
        0,
        0,
        0
      ],
      "alphaMode": "OPAQUE",
      "doubleSided": false
    },
    {
      "name": "head",
      "pbrMetallicRoughness": {
        "baseColorFactor": [
          0.5,
          0.5,
          0.5,
          1
        ],
        "metallicFactor": 0,
        "roughnessFactor": 1
      },
      "emissiveFactor": [
        0,
        0,
        0
      ],
      "alphaMode": "OPAQUE",
      "doubleSided": false
    },
    {
      "name": "window",
      "pbrMetallicRoughness": {
        "baseColorFactor": [
          0.5,
          0.5,
          0.5,
          1
        ],
        "metallicFactor": 0,
        "roughnessFactor": 1
      },
      "emissiveFactor": [
        0,
        0,
        0
      ],
      "alphaMode": "OPAQUE",
      "doubleSided": false
    },
    {
      "name": "smoke",
      "pbrMetallicRoughness": {
        "baseColorFactor": [
          0.5,
          0.5,
          0.5,
          1
        ],
        "metallicFactor": 0,
        "roughnessFactor": 1
      },
      "emissiveFactor": [
        0,
        0,
        0
      ],
      "alphaMode": "OPAQUE",
      "doubleSided": false
    }
  ],
  "meshes": [
    {
      "name": "Plane-Mesh",
      "primitives": [
        {
          "attributes": {
            "POSITION": 0,
            "NORMAL": 1
          },
          "indices": 2,
          "material": 0,
          "mode": 4
        }
      ]
    },
    {
      "name": "win_frame_Circle.000-Mesh",
      "primitives": [
        {
          "attributes": {
            "POSITION": 3,
            "NORMAL": 4
          },
          "indices": 5,
          "material": 0,
          "mode": 4
        }
      ]
    },
    {
      "name": "inlet2_Plane.006-Mesh",
      "primitives": [
        {
          "attributes": {
            "POSITION": 6,
            "NORMAL": 7
          },
          "indices": 8,
          "material": 1,
          "mode": 4
        }
      ]
    },
    {
      "name": "window_Circle.001-Mesh",
      "primitives": [
        {
          "attributes": {
            "POSITION": 9,
            "NORMAL": 10
          },
          "indices": 11,
          "material": 2,
          "mode": 4
        }
      ]
    },
    {
      "name": "head_Plane.001-Mesh",
      "primitives": [
        {
          "attributes": {
            "POSITION": 12,
            "NORMAL": 13
          },
          "indices": 14,
          "material": 1,
          "mode": 4
        }
      ]
    },
    {
      "name": "Propeller_Plane.002-Mesh",
      "primitives": [
        {
          "attributes": {
            "POSITION": 15,
            "NORMAL": 16
          },
          "indices": 17,
          "material": 1,
          "mode": 4
        }
      ]
    },
    {
      "name": "inlet1_Plane.005-Mesh",
      "primitives": [
        {
          "attributes": {
            "POSITION": 18,
            "NORMAL": 19
          },
          "indices": 20,
          "material": 1,
          "mode": 4
        }
      ]
    },
    {
      "name": "smoke1_Cylinder-Mesh",
      "primitives": [
        {
          "attributes": {
            "POSITION": 21,
            "NORMAL": 22
          },
          "indices": 23,
          "material": 3,
          "mode": 4
        }
      ]
    },
    {
      "name": "smoke2_Cylinder.002-Mesh",
      "primitives": [
        {
          "attributes": {
            "POSITION": 24,
            "NORMAL": 25
          },
          "indices": 26,
          "material": 3,
          "mode": 4
        }
      ]
    }
  ],
  "nodes": [
    {
      "name": "Plane",
      "mesh": 0
    },
    {
      "name": "win_frame_Circle.000",
      "mesh": 1
    },
    {
      "name": "inlet2_Plane.006",
      "mesh": 2
    },
    {
      "name": "window_Circle.001",
      "mesh": 3
    },
    {
      "name": "head_Plane.001",
      "mesh": 4
    },
    {
      "name": "Propeller_Plane.002",
      "mesh": 5
    },
    {
      "name": "inlet1_Plane.005",
      "mesh": 6
    },
    {
      "name": "smoke1_Cylinder",
      "mesh": 7
    },
    {
      "name": "smoke2_Cylinder.002",
      "mesh": 8
    }
  ],
  "scene": 0,
  "scenes": [
    {
      "nodes": [
        0,
        1,
        2,
        3,
        4,
        5,
        6,
        7,
        8
      ]
    }
  ]
}
