# 3ds Max Wavefront OBJ Exporter v0.97b - (c)2007 guruware
# 创建的文件:07.05.2020 10:15:47

mtllib gubi.mtl

#
# object Box001
#

v  32.3238 -3.3975 -1.0212
v  31.7915 -6.7576 -1.0212
v  30.9110 -10.0437 -1.0212
v  29.6918 -13.2198 -1.0212
v  28.1473 -16.2510 -1.0212
v  26.2945 -19.1042 -1.0212
v  24.1535 -21.7481 -1.0212
v  21.7479 -24.1536 -1.0212
v  19.1040 -26.2946 -1.0212
v  16.2508 -28.1475 -1.0212
v  13.2196 -29.6919 -1.0212
v  10.0435 -30.9111 -1.0212
v  6.7574 -31.7916 -1.0212
v  3.3973 -32.3238 -1.0212
v  -0.0001 -32.5018 -1.0212
v  -3.3975 -32.3238 -1.0212
v  -6.7576 -31.7916 -1.0212
v  -10.0437 -30.9110 -1.0212
v  -13.2198 -29.6919 -1.0212
v  -16.2510 -28.1474 -1.0212
v  -19.1041 -26.2945 -1.0212
v  -21.7480 -24.1535 -1.0212
v  -24.1536 -21.7479 -1.0212
v  -26.2946 -19.1040 -1.0212
v  -28.1474 -16.2509 -1.0212
v  -29.6919 -13.2196 -1.0212
v  -30.9111 -10.0436 -1.0212
v  -31.7916 -6.7575 -1.0212
v  -32.3238 -3.3973 -1.0212
v  -32.5018 0.0000 -1.0211
v  -32.3238 3.3974 -1.0211
v  -31.7916 6.7575 -1.0211
v  -30.9111 10.0436 -1.0211
v  -29.6919 13.2197 -1.0211
v  -28.1474 16.2509 -1.0211
v  -26.2945 19.1041 -1.0211
v  -24.1536 21.7480 -1.0211
v  -21.7480 24.1536 -1.0211
v  -19.1041 26.2945 -1.0211
v  -16.2509 28.1474 -1.0211
v  -13.2197 29.6919 -1.0211
v  -10.0436 30.9111 -1.0211
v  -6.7575 31.7916 -1.0211
v  -3.3974 32.3238 -1.0211
v  -0.0000 32.5018 -1.0211
v  3.3974 32.3238 -1.0211
v  6.7575 31.7916 -1.0211
v  10.0436 30.9111 -1.0211
v  13.2197 29.6919 -1.0211
v  16.2509 28.1474 -1.0211
v  19.1041 26.2945 -1.0211
v  21.7480 24.1536 -1.0211
v  24.1536 21.7480 -1.0211
v  26.2945 19.1041 -1.0211
v  28.1474 16.2509 -1.0211
v  29.6919 13.2197 -1.0211
v  30.9111 10.0436 -1.0211
v  31.7916 6.7575 -1.0211
v  32.3238 3.3974 -1.0211
v  32.5018 0.0000 -1.0211
v  32.3238 3.3974 1.0212
v  32.5018 -0.0000 1.0211
v  31.7916 6.7575 1.0212
v  30.9111 10.0436 1.0212
v  29.6919 13.2197 1.0212
v  28.1474 16.2509 1.0212
v  26.2945 19.1041 1.0212
v  24.1536 21.7480 1.0212
v  21.7480 24.1536 1.0212
v  19.1041 26.2945 1.0212
v  16.2509 28.1474 1.0212
v  13.2197 29.6919 1.0212
v  10.0436 30.9111 1.0212
v  6.7575 31.7916 1.0212
v  3.3974 32.3238 1.0212
v  -0.0000 32.5018 1.0212
v  -3.3974 32.3238 1.0212
v  -6.7575 31.7916 1.0212
v  -10.0436 30.9111 1.0212
v  -13.2197 29.6919 1.0212
v  -16.2509 28.1474 1.0212
v  -19.1041 26.2945 1.0212
v  -21.7480 24.1536 1.0212
v  -24.1536 21.7480 1.0212
v  -26.2945 19.1041 1.0212
v  -28.1474 16.2509 1.0212
v  -29.6919 13.2197 1.0212
v  -30.9111 10.0436 1.0212
v  -31.7916 6.7575 1.0212
v  -32.3238 3.3974 1.0212
v  -32.5018 0.0000 1.0211
v  -32.3238 -3.3973 1.0211
v  -31.7916 -6.7575 1.0211
v  -30.9111 -10.0436 1.0211
v  -29.6919 -13.2196 1.0211
v  -28.1474 -16.2509 1.0211
v  -26.2946 -19.1040 1.0211
v  -24.1536 -21.7479 1.0211
v  -21.7480 -24.1535 1.0211
v  -19.1041 -26.2945 1.0211
v  -16.2510 -28.1474 1.0211
v  -13.2198 -29.6919 1.0211
v  -10.0437 -30.9110 1.0211
v  -6.7576 -31.7916 1.0211
v  -3.3975 -32.3238 1.0211
v  -0.0001 -32.5018 1.0211
v  3.3973 -32.3238 1.0211
v  6.7574 -31.7916 1.0211
v  10.0435 -30.9111 1.0211
v  13.2196 -29.6919 1.0211
v  16.2508 -28.1475 1.0211
v  19.1040 -26.2946 1.0211
v  21.7479 -24.1536 1.0211
v  24.1535 -21.7481 1.0211
v  26.2945 -19.1042 1.0211
v  28.1473 -16.2510 1.0211
v  29.6918 -13.2198 1.0211
v  30.9110 -10.0437 1.0211
v  31.7915 -6.7576 1.0211
v  32.3238 -3.3975 1.0211
# 120 vertices

vn 0.7146 -0.0751 -0.6955
vn 0.7028 -0.1494 -0.6955
vn 0.6833 -0.2220 -0.6955
vn 0.6564 -0.2923 -0.6955
vn 0.6222 -0.3593 -0.6955
vn 0.5813 -0.4223 -0.6955
vn 0.5340 -0.4808 -0.6955
vn 0.4807 -0.5339 -0.6956
vn 0.4223 -0.5813 -0.6955
vn 0.3593 -0.6223 -0.6955
vn 0.2922 -0.6564 -0.6955
vn 0.2220 -0.6833 -0.6955
vn 0.1494 -0.7028 -0.6955
vn 0.0751 -0.7146 -0.6955
vn -0.0000 -0.7185 -0.6955
vn -0.0751 -0.7146 -0.6955
vn -0.1494 -0.7028 -0.6955
vn -0.2220 -0.6833 -0.6956
vn -0.2922 -0.6563 -0.6956
vn -0.3593 -0.6223 -0.6955
vn -0.4223 -0.5813 -0.6955
vn -0.4808 -0.5340 -0.6955
vn -0.5340 -0.4808 -0.6955
vn -0.5813 -0.4223 -0.6955
vn -0.6223 -0.3593 -0.6955
vn -0.6564 -0.2922 -0.6955
vn -0.6834 -0.2220 -0.6955
vn -0.7028 -0.1494 -0.6955
vn -0.7146 -0.0751 -0.6955
vn -0.7185 0.0000 -0.6955
vn -0.7146 0.0751 -0.6955
vn -0.7028 0.1494 -0.6955
vn -0.6833 0.2220 -0.6955
vn -0.6564 0.2922 -0.6955
vn -0.6222 0.3593 -0.6955
vn -0.5813 0.4223 -0.6955
vn -0.5340 0.4808 -0.6955
vn -0.4808 0.5340 -0.6955
vn -0.4223 0.5813 -0.6955
vn -0.3593 0.6222 -0.6955
vn -0.2922 0.6564 -0.6955
vn -0.2220 0.6833 -0.6956
vn -0.1494 0.7027 -0.6956
vn -0.0751 0.7146 -0.6955
vn -0.0000 0.7185 -0.6955
vn 0.0751 0.7146 -0.6955
vn 0.1494 0.7027 -0.6956
vn 0.2220 0.6833 -0.6956
vn 0.2922 0.6564 -0.6955
vn 0.3593 0.6222 -0.6955
vn 0.4223 0.5813 -0.6955
vn 0.4808 0.5340 -0.6955
vn 0.5339 0.4807 -0.6956
vn 0.5813 0.4223 -0.6955
vn 0.6222 0.3593 -0.6955
vn 0.6564 0.2922 -0.6955
vn 0.6833 0.2220 -0.6955
vn 0.7028 0.1494 -0.6955
vn 0.7145 0.0751 -0.6956
vn 0.7185 -0.0000 -0.6955
vn 0.7146 0.0751 0.6955
vn 0.7185 -0.0000 0.6955
vn 0.7028 0.1494 0.6956
vn 0.6833 0.2220 0.6955
vn 0.6564 0.2922 0.6955
vn 0.6222 0.3593 0.6955
vn 0.5813 0.4223 0.6955
vn 0.5340 0.4808 0.6955
vn 0.4807 0.5339 0.6956
vn 0.4223 0.5813 0.6955
vn 0.3593 0.6223 0.6955
vn 0.2922 0.6564 0.6955
vn 0.2220 0.6833 0.6956
vn 0.1494 0.7027 0.6956
vn 0.0751 0.7145 0.6956
vn -0.0000 0.7185 0.6955
vn -0.0751 0.7145 0.6956
vn -0.1494 0.7027 0.6956
vn -0.2220 0.6833 0.6956
vn -0.2922 0.6564 0.6955
vn -0.3593 0.6223 0.6955
vn -0.4223 0.5813 0.6955
vn -0.4808 0.5340 0.6955
vn -0.5340 0.4808 0.6955
vn -0.5813 0.4223 0.6955
vn -0.6222 0.3593 0.6955
vn -0.6564 0.2922 0.6955
vn -0.6833 0.2220 0.6955
vn -0.7028 0.1494 0.6955
vn -0.7146 0.0751 0.6955
vn -0.7185 0.0000 0.6955
vn -0.7146 -0.0751 0.6955
vn -0.7028 -0.1494 0.6955
vn -0.6833 -0.2220 0.6955
vn -0.6564 -0.2922 0.6955
vn -0.6222 -0.3593 0.6955
vn -0.5813 -0.4223 0.6955
vn -0.5340 -0.4808 0.6955
vn -0.4808 -0.5340 0.6955
vn -0.4223 -0.5813 0.6955
vn -0.3592 -0.6222 0.6956
vn -0.2922 -0.6563 0.6956
vn -0.2220 -0.6834 0.6955
vn -0.1494 -0.7028 0.6955
vn -0.0751 -0.7146 0.6955
vn -0.0000 -0.7185 0.6955
vn 0.0751 -0.7146 0.6955
vn 0.1494 -0.7028 0.6955
vn 0.2220 -0.6833 0.6955
vn 0.2922 -0.6564 0.6955
vn 0.3593 -0.6223 0.6955
vn 0.4223 -0.5813 0.6955
vn 0.4808 -0.5340 0.6955
vn 0.5339 -0.4808 0.6956
vn 0.5813 -0.4223 0.6955
vn 0.6222 -0.3593 0.6955
vn 0.6564 -0.2922 0.6956
vn 0.6833 -0.2220 0.6955
vn 0.7028 -0.1494 0.6956
vn 0.7146 -0.0751 0.6955
# 120 vertex normals

vt 0.4728 0.5053 0.0000
vt 0.4507 0.5220 0.0000
vt 0.4270 0.5362 0.0000
vt 0.4020 0.5479 0.0000
vt 0.3758 0.5569 0.0000
vt 0.3489 0.5631 0.0000
vt 0.3215 0.5665 0.0000
vt 0.2939 0.5669 0.0000
vt 0.2663 0.5645 0.0000
vt 0.2392 0.5593 0.0000
vt 0.2128 0.5512 0.0000
vt 0.1873 0.5404 0.0000
vt 0.1632 0.5270 0.0000
vt 0.1405 0.5111 0.0000
vt 0.1197 0.4930 0.0000
vt 0.1008 0.4728 0.0000
vt 0.0842 0.4507 0.0000
vt 0.0699 0.4270 0.0000
vt 0.0583 0.4020 0.0000
vt 0.0493 0.3758 0.0000
vt 0.0431 0.3489 0.0000
vt 0.0397 0.3215 0.0000
vt 0.0392 0.2939 0.0000
vt 0.0416 0.2663 0.0000
vt 0.0469 0.2392 0.0000
vt 0.0550 0.2128 0.0000
vt 0.0658 0.1873 0.0000
vt 0.0792 0.1632 0.0000
vt 0.0950 0.1405 0.0000
vt 0.1131 0.1197 0.0000
vt 0.1334 0.1008 0.0000
vt 0.1554 0.0842 0.0000
vt 0.1791 0.0699 0.0000
vt 0.2042 0.0583 0.0000
vt 0.2303 0.0493 0.0000
vt 0.2572 0.0431 0.0000
vt 0.2847 0.0397 0.0000
vt 0.3123 0.0392 0.0000
vt 0.3398 0.0416 0.0000
vt 0.3669 0.0469 0.0000
vt 0.3934 0.0550 0.0000
vt 0.4188 0.0658 0.0000
vt 0.4430 0.0792 0.0000
vt 0.4656 0.0950 0.0000
vt 0.4865 0.1131 0.0000
vt 0.5053 0.1334 0.0000
vt 0.5220 0.1554 0.0000
vt 0.5362 0.1791 0.0000
vt 0.5479 0.2042 0.0000
vt 0.5569 0.2303 0.0000
vt 0.5631 0.2572 0.0000
vt 0.5665 0.2847 0.0000
vt 0.5669 0.3123 0.0000
vt 0.5645 0.3398 0.0000
vt 0.5593 0.3669 0.0000
vt 0.5512 0.3934 0.0000
vt 0.5404 0.4188 0.0000
vt 0.5270 0.4430 0.0000
vt 0.5111 0.4656 0.0000
vt 0.4930 0.4865 0.0000
vt 0.2802 0.9247 0.0000
vt 0.2511 0.9247 0.0000
vt 0.2511 0.9073 0.0000
vt 0.2802 0.9073 0.0000
vt 0.2224 0.9247 0.0000
vt 0.2224 0.9073 0.0000
vt 0.1942 0.9247 0.0000
vt 0.1942 0.9073 0.0000
vt 0.1670 0.9247 0.0000
vt 0.1670 0.9073 0.0000
vt 0.1411 0.9247 0.0000
vt 0.1411 0.9073 0.0000
vt 0.1166 0.9247 0.0000
vt 0.1166 0.9073 0.0000
vt 0.0940 0.9247 0.0000
vt 0.0940 0.9073 0.0000
vt 0.0734 0.9247 0.0000
vt 0.0734 0.9073 0.0000
vt 0.4649 0.8801 0.0000
vt 0.4425 0.8801 0.0000
vt 0.4425 0.8627 0.0000
vt 0.4649 0.8627 0.0000
vt 0.4182 0.8801 0.0000
vt 0.4182 0.8627 0.0000
vt 0.3924 0.8801 0.0000
vt 0.3924 0.8627 0.0000
vt 0.3654 0.8801 0.0000
vt 0.3654 0.8627 0.0000
vt 0.3375 0.8801 0.0000
vt 0.3375 0.8627 0.0000
vt 0.3089 0.8801 0.0000
vt 0.3089 0.8627 0.0000
vt 0.2801 0.8801 0.0000
vt 0.2801 0.8627 0.0000
vt 0.2512 0.8801 0.0000
vt 0.2512 0.8627 0.0000
vt 0.2226 0.8801 0.0000
vt 0.2226 0.8627 0.0000
vt 0.1947 0.8801 0.0000
vt 0.1947 0.8627 0.0000
vt 0.1677 0.8801 0.0000
vt 0.1677 0.8627 0.0000
vt 0.1419 0.8801 0.0000
vt 0.1419 0.8627 0.0000
vt 0.1177 0.8801 0.0000
vt 0.1177 0.8627 0.0000
vt 0.0952 0.8801 0.0000
vt 0.0952 0.8627 0.0000
vt 0.4717 0.9471 0.0000
vt 0.4509 0.9471 0.0000
vt 0.4509 0.9295 0.0000
vt 0.4717 0.9295 0.0000
vt 0.4281 0.9471 0.0000
vt 0.4281 0.9295 0.0000
vt 0.4035 0.9471 0.0000
vt 0.4035 0.9295 0.0000
vt 0.3774 0.9471 0.0000
vt 0.3774 0.9295 0.0000
vt 0.3500 0.9471 0.0000
vt 0.3500 0.9295 0.0000
vt 0.3217 0.9471 0.0000
vt 0.3217 0.9295 0.0000
vt 0.2927 0.9471 0.0000
vt 0.2927 0.9295 0.0000
vt 0.2634 0.9471 0.0000
vt 0.2634 0.9295 0.0000
vt 0.2341 0.9471 0.0000
vt 0.2341 0.9295 0.0000
vt 0.2051 0.9471 0.0000
vt 0.2051 0.9295 0.0000
vt 0.1768 0.9471 0.0000
vt 0.1768 0.9295 0.0000
vt 0.1494 0.9471 0.0000
vt 0.1494 0.9295 0.0000
vt 0.1233 0.9471 0.0000
vt 0.1233 0.9295 0.0000
vt 0.0987 0.9471 0.0000
vt 0.0987 0.9295 0.0000
vt 0.0759 0.9471 0.0000
vt 0.0759 0.9295 0.0000
vt 0.0551 0.9471 0.0000
vt 0.0551 0.9295 0.0000
vt 0.4665 0.9024 0.0000
vt 0.4439 0.9024 0.0000
vt 0.4439 0.8850 0.0000
vt 0.4665 0.8850 0.0000
vt 0.4194 0.9024 0.0000
vt 0.4194 0.8850 0.0000
vt 0.3935 0.9024 0.0000
vt 0.3935 0.8850 0.0000
vt 0.3663 0.9024 0.0000
vt 0.3663 0.8850 0.0000
vt 0.3381 0.9024 0.0000
vt 0.3381 0.8850 0.0000
vt 0.3093 0.9024 0.0000
vt 0.3093 0.8850 0.0000
vt 0.2802 0.9024 0.0000
vt 0.2802 0.8850 0.0000
vt 0.2511 0.9024 0.0000
vt 0.2511 0.8850 0.0000
vt 0.2224 0.9024 0.0000
vt 0.2224 0.8850 0.0000
vt 0.1942 0.9024 0.0000
vt 0.1942 0.8850 0.0000
vt 0.1670 0.9024 0.0000
vt 0.1670 0.8850 0.0000
vt 0.1411 0.9024 0.0000
vt 0.1411 0.8850 0.0000
vt 0.1166 0.9024 0.0000
vt 0.1166 0.8850 0.0000
vt 0.0940 0.9024 0.0000
vt 0.0940 0.8850 0.0000
vt 0.0734 0.9024 0.0000
vt 0.0734 0.8850 0.0000
vt 0.4665 0.9247 0.0000
vt 0.4439 0.9247 0.0000
vt 0.4439 0.9073 0.0000
vt 0.4665 0.9073 0.0000
vt 0.4194 0.9247 0.0000
vt 0.4194 0.9073 0.0000
vt 0.3935 0.9247 0.0000
vt 0.3935 0.9073 0.0000
vt 0.3663 0.9247 0.0000
vt 0.3663 0.9073 0.0000
vt 0.3381 0.9247 0.0000
vt 0.3381 0.9073 0.0000
vt 0.3093 0.9247 0.0000
vt 0.3093 0.9073 0.0000
vt 0.4780 0.5413 0.0000
vt 0.4947 0.5193 0.0000
vt 0.5135 0.4990 0.0000
vt 0.5344 0.4809 0.0000
vt 0.5570 0.4651 0.0000
vt 0.5812 0.4517 0.0000
vt 0.6066 0.4409 0.0000
vt 0.6331 0.4328 0.0000
vt 0.6602 0.4275 0.0000
vt 0.6877 0.4251 0.0000
vt 0.7153 0.4256 0.0000
vt 0.7428 0.4290 0.0000
vt 0.7697 0.4352 0.0000
vt 0.7958 0.4442 0.0000
vt 0.8209 0.4558 0.0000
vt 0.8446 0.4701 0.0000
vt 0.8666 0.4867 0.0000
vt 0.8869 0.5056 0.0000
vt 0.9050 0.5264 0.0000
vt 0.9208 0.5491 0.0000
vt 0.9342 0.5732 0.0000
vt 0.9450 0.5987 0.0000
vt 0.9531 0.6251 0.0000
vt 0.9584 0.6522 0.0000
vt 0.9608 0.6798 0.0000
vt 0.9603 0.7074 0.0000
vt 0.9569 0.7348 0.0000
vt 0.9507 0.7617 0.0000
vt 0.9417 0.7879 0.0000
vt 0.9301 0.8129 0.0000
vt 0.9158 0.8366 0.0000
vt 0.8992 0.8587 0.0000
vt 0.8803 0.8789 0.0000
vt 0.8595 0.8970 0.0000
vt 0.8368 0.9129 0.0000
vt 0.8127 0.9263 0.0000
vt 0.7872 0.9371 0.0000
vt 0.7608 0.9452 0.0000
vt 0.7337 0.9504 0.0000
vt 0.7061 0.9528 0.0000
vt 0.6785 0.9524 0.0000
vt 0.6511 0.9490 0.0000
vt 0.6242 0.9428 0.0000
vt 0.5980 0.9338 0.0000
vt 0.5730 0.9221 0.0000
vt 0.5493 0.9079 0.0000
vt 0.5272 0.8912 0.0000
vt 0.5070 0.8724 0.0000
vt 0.4889 0.8515 0.0000
vt 0.4730 0.8289 0.0000
vt 0.4596 0.8047 0.0000
vt 0.4488 0.7793 0.0000
vt 0.4407 0.7528 0.0000
vt 0.4355 0.7257 0.0000
vt 0.4331 0.6982 0.0000
vt 0.4335 0.6706 0.0000
vt 0.4369 0.6431 0.0000
vt 0.4431 0.6162 0.0000
vt 0.4521 0.5901 0.0000
vt 0.4638 0.5650 0.0000
# 248 texture coords

o Box001
g Box001
usemtl 05___Default
s 1
f 1/1/1 2/2/2 3/3/3 4/4/4 5/5/5 6/6/6 7/7/7 8/8/8 9/9/9 10/10/10 11/11/11 12/12/12 13/13/13 14/14/14 15/15/15 16/16/16 17/17/17 18/18/18 19/19/19 20/20/20 21/21/21 22/22/22 23/23/23 24/24/24 25/25/25 26/26/26 27/27/27 28/28/28 29/29/29 30/30/30 31/31/31 32/32/32 33/33/33 34/34/34 35/35/35 36/36/36 37/37/37 38/38/38 39/39/39 40/40/40 41/41/41 42/42/42 43/43/43 44/44/44 45/45/45 46/46/46 47/47/47 48/48/48 49/49/49 50/50/50 51/51/51 52/52/52 53/53/53 54/54/54 55/55/55 56/56/56 57/57/57 58/58/58 59/59/59 60/60/60 
s 8
f 60/61/60 59/62/59 61/63/61 62/64/62 
f 59/62/59 58/65/58 63/66/63 61/63/61 
f 58/65/58 57/67/57 64/68/64 63/66/63 
f 57/67/57 56/69/56 65/70/65 64/68/64 
f 56/69/56 55/71/55 66/72/66 65/70/65 
f 55/71/55 54/73/54 67/74/67 66/72/66 
f 54/73/54 53/75/53 68/76/68 67/74/67 
f 53/75/53 52/77/52 69/78/69 68/76/68 
f 52/79/52 51/80/51 70/81/70 69/82/69 
f 51/80/51 50/83/50 71/84/71 70/81/70 
f 50/83/50 49/85/49 72/86/72 71/84/71 
f 49/85/49 48/87/48 73/88/73 72/86/72 
f 48/87/48 47/89/47 74/90/74 73/88/73 
f 47/89/47 46/91/46 75/92/75 74/90/74 
f 46/91/46 45/93/45 76/94/76 75/92/75 
f 45/93/45 44/95/44 77/96/77 76/94/76 
f 44/95/44 43/97/43 78/98/78 77/96/77 
f 43/97/43 42/99/42 79/100/79 78/98/78 
f 42/99/42 41/101/41 80/102/80 79/100/79 
f 41/101/41 40/103/40 81/104/81 80/102/80 
f 40/103/40 39/105/39 82/106/82 81/104/81 
f 39/105/39 38/107/38 83/108/83 82/106/82 
f 38/109/38 37/110/37 84/111/84 83/112/83 
f 37/110/37 36/113/36 85/114/85 84/111/84 
f 36/113/36 35/115/35 86/116/86 85/114/85 
f 35/115/35 34/117/34 87/118/87 86/116/86 
f 34/117/34 33/119/33 88/120/88 87/118/87 
f 33/119/33 32/121/32 89/122/89 88/120/88 
f 32/121/32 31/123/31 90/124/90 89/122/89 
f 31/123/31 30/125/30 91/126/91 90/124/90 
f 30/125/30 29/127/29 92/128/92 91/126/91 
f 29/127/29 28/129/28 93/130/93 92/128/92 
f 28/129/28 27/131/27 94/132/94 93/130/93 
f 27/131/27 26/133/26 95/134/95 94/132/94 
f 26/133/26 25/135/25 96/136/96 95/134/95 
f 25/135/25 24/137/24 97/138/97 96/136/96 
f 24/137/24 23/139/23 98/140/98 97/138/97 
f 23/139/23 22/141/22 99/142/99 98/140/98 
f 22/143/22 21/144/21 100/145/100 99/146/99 
f 21/144/21 20/147/20 101/148/101 100/145/100 
f 20/147/20 19/149/19 102/150/102 101/148/101 
f 19/149/19 18/151/18 103/152/103 102/150/102 
f 18/151/18 17/153/17 104/154/104 103/152/103 
f 17/153/17 16/155/16 105/156/105 104/154/104 
f 16/155/16 15/157/15 106/158/106 105/156/105 
f 15/157/15 14/159/14 107/160/107 106/158/106 
f 14/159/14 13/161/13 108/162/108 107/160/107 
f 13/161/13 12/163/12 109/164/109 108/162/108 
f 12/163/12 11/165/11 110/166/110 109/164/109 
f 11/165/11 10/167/10 111/168/111 110/166/110 
f 10/167/10 9/169/9 112/170/112 111/168/111 
f 9/169/9 8/171/8 113/172/113 112/170/112 
f 8/171/8 7/173/7 114/174/114 113/172/113 
f 7/175/7 6/176/6 115/177/115 114/178/114 
f 6/176/6 5/179/5 116/180/116 115/177/115 
f 5/179/5 4/181/4 117/182/117 116/180/116 
f 4/181/4 3/183/3 118/184/118 117/182/117 
f 3/183/3 2/185/2 119/186/119 118/184/118 
f 2/185/2 1/187/1 120/188/120 119/186/119 
f 1/187/1 60/61/60 62/64/62 120/188/120 
s 1
f 120/189/120 62/190/62 61/191/61 63/192/63 64/193/64 65/194/65 66/195/66 67/196/67 68/197/68 69/198/69 70/199/70 71/200/71 72/201/72 73/202/73 74/203/74 75/204/75 76/205/76 77/206/77 78/207/78 79/208/79 80/209/80 81/210/81 82/211/82 83/212/83 84/213/84 85/214/85 86/215/86 87/216/87 88/217/88 89/218/89 90/219/90 91/220/91 92/221/92 93/222/93 94/223/94 95/224/95 96/225/96 97/226/97 98/227/98 99/228/99 100/229/100 101/230/101 102/231/102 103/232/103 104/233/104 105/234/105 106/235/106 107/236/107 108/237/108 109/238/109 110/239/110 111/240/111 112/241/112 113/242/113 114/243/114 115/244/115 116/245/116 117/246/117 118/247/118 119/248/119 
# 62 polygons

