{
  "accessors": [
    {
      "name": "Line011_1_0_positions",
      "componentType": 5126,
      "count": 9998,
      "min": [
        -176.2050018310547,
        -58.63639831542969,
        -17.457399368286133
      ],
      "max": [
        175.8450927734375,
        58.7218017578125,
        17.489900588989258
      ],
      "type": "VEC3",
      "bufferView": 0,
      "byteOffset": 0
    },
    {
      "name": "Line011_1_0_normals",
      "componentType": 5126,
      "count": 9998,
      "min": [
        -1,
        -1,
        -1
      ],
      "max": [
        1,
        1,
        1
      ],
      "type": "VEC3",
      "bufferView": 1,
      "byteOffset": 0
    },
    {
      "name": "Line011_1_0_texcoords",
      "componentType": 5126,
      "count": 9998,
      "min": [
        0.008500000461935997,
        0.00139999995008111
      ],
      "max": [
        0.9930999875068665,
        0.9955000281333923
      ],
      "type": "VEC2",
      "bufferView": 2,
      "byteOffset": 0
    },
    {
      "name": "Line011_1_0_indices",
      "componentType": 5123,
      "count": 53904,
      "min": [
        0
      ],
      "max": [
        9997
      ],
      "type": "SCALAR",
      "bufferView": 3,
      "byteOffset": 0
    }
  ],
  "asset": {
    "generator": "obj2gltf",
    "version": "2.0"
  },
  "buffers": [
    {
      "name": "index",
      "byteLength": 427744,
      "uri": "data:application/octet-stream;base64,"
    }
  ],
  "bufferViews": [
    {
      "name": "bufferView_0",
      "buffer": 0,
      "byteLength": 119976,
      "byteOffset": 0,
      "byteStride": 12,
      "target": 34962
    },
    {
      "name": "bufferView_1",
      "buffer": 0,
      "byteLength": 119976,
      "byteOffset": 119976,
      "byteStride": 12,
      "target": 34962
    },
    {
      "name": "bufferView_2",
      "buffer": 0,
      "byteLength": 79984,
      "byteOffset": 239952,
      "byteStride": 8,
      "target": 34962
    },
    {
      "name": "bufferView_3",
      "buffer": 0,
      "byteLength": 107808,
      "byteOffset": 319936,
      "target": 34963
    }
  ],
  "materials": [
    {
      "name": "_2234_12301___Default",
      "pbrMetallicRoughness": {
        "baseColorFactor": [
          0.5,
          0.5,
          0.5,
          1
        ],
        "metallicFactor": 0,
        "roughnessFactor": 1
      },
      "emissiveFactor": [
        0,
        0,
        0
      ],
      "alphaMode": "OPAQUE",
      "doubleSided": false
    }
  ],
  "meshes": [
    {
      "name": "Line011_1",
      "primitives": [
        {
          "attributes": {
            "POSITION": 0,
            "NORMAL": 1,
            "TEXCOORD_0": 2
          },
          "indices": 3,
          "material": 0,
          "mode": 4
        }
      ]
    }
  ],
  "nodes": [
    {
      "name": "Line011",
      "mesh": 0
    }
  ],
  "scene": 0,
  "scenes": [
    {
      "nodes": [
        0
      ]
    }
  ]
}
